<?xml version="1.0" encoding="UTF-8" standalone="no"?>
<!DOCTYPE svg PUBLIC "-//W3C//DTD SVG 1.1//EN" "http://www.w3.org/Graphics/SVG/1.1/DTD/svg11.dtd">
<svg version="1.1" xmlns="http://www.w3.org/2000/svg" xmlns:xlink="http://www.w3.org/1999/xlink" preserveAspectRatio="xMidYMid meet" viewBox="0 0 640 640" width="640" height="640"><defs><path d="M6.98 224.05L307.31 224.05L307.31 490.66L6.98 490.66L6.98 224.05Z" id="a4kI0HQuW"></path><path d="M87.07 171.12C87.07 161.38 82.03 153.48 75.81 153.48C70.05 153.48 24 153.48 18.25 153.48C12.03 153.48 6.98 161.38 6.98 171.12C6.98 174.65 6.98 192.29 6.98 224.05L87.07 224.05C87.07 195.82 87.07 178.18 87.07 171.12Z" id="f2IyEjKyLb"></path><path d="M179.67 167.2C179.67 159.62 175.75 153.48 170.91 153.48C164.66 153.48 114.6 153.48 108.35 153.48C103.51 153.48 99.59 159.62 99.59 167.2C99.59 169.94 99.59 183.67 99.59 208.37L179.67 208.37C179.67 186.41 179.67 172.69 179.67 167.2Z" id="ak7ifvDJn"></path><path d="M272.28 167.2C272.28 159.62 268.35 153.48 263.52 153.48C257.26 153.48 207.2 153.48 200.95 153.48C196.11 153.48 192.19 159.62 192.19 167.2C192.19 169.94 192.19 183.67 192.19 208.37L272.28 208.37C272.28 186.41 272.28 172.69 272.28 167.2Z" id="b7zsLZc5g4"></path><path d="M332.69 224.05L633.02 224.05L633.02 490.66L332.69 490.66L332.69 224.05Z" id="ig6ZKKeMz"></path><path d="M412.77 171.12C412.77 161.38 407.73 153.48 401.51 153.48C395.76 153.48 349.7 153.48 343.95 153.48C337.73 153.48 332.69 161.38 332.69 171.12C332.69 174.65 332.69 192.29 332.69 224.05L412.77 224.05C412.77 195.82 412.77 178.18 412.77 171.12Z" id="a3aKCFIMmz"></path><path d="M505.38 167.2C505.38 159.62 501.45 153.48 496.62 153.48C490.36 153.48 440.3 153.48 434.05 153.48C429.21 153.48 425.29 159.62 425.29 167.2C425.29 169.94 425.29 183.67 425.29 208.37L505.38 208.37C505.38 186.41 505.38 172.69 505.38 167.2Z" id="e5XGLnpq9p"></path><path d="M597.98 167.2C597.98 159.62 594.05 153.48 589.22 153.48C582.96 153.48 532.91 153.48 526.65 153.48C521.81 153.48 517.89 159.62 517.89 167.2C517.89 169.94 517.89 183.67 517.89 208.37L597.98 208.37C597.98 186.41 597.98 172.69 597.98 167.2Z" id="g1Z23Xmx5l"></path><path d="M341.07 378.02L415.25 337.36L341.07 296.69L341.07 322.47L262.4 322.47L262.4 352.31L341.07 352.31L341.07 378.02Z" id="d2jRiVLEqQ"></path></defs><g><g><g><use xlink:href="#a4kI0HQuW" opacity="1" fill="#adb7b9" fill-opacity="1"></use><g><use xlink:href="#a4kI0HQuW" opacity="1" fill-opacity="0" stroke="#000000" stroke-width="1" stroke-opacity="0"></use></g></g><g><use xlink:href="#f2IyEjKyLb" opacity="1" fill="#adb7b9" fill-opacity="1"></use><g><use xlink:href="#f2IyEjKyLb" opacity="1" fill-opacity="0" stroke="#000000" stroke-width="1" stroke-opacity="0"></use></g></g><g><use xlink:href="#ak7ifvDJn" opacity="1" fill="#e74b3c" fill-opacity="1"></use><g><use xlink:href="#ak7ifvDJn" opacity="1" fill-opacity="0" stroke="#000000" stroke-width="1" stroke-opacity="0"></use></g></g><g><use xlink:href="#b7zsLZc5g4" opacity="1" fill="#f1c42c" fill-opacity="1"></use><g><use xlink:href="#b7zsLZc5g4" opacity="1" fill-opacity="0" stroke="#000000" stroke-width="1" stroke-opacity="0"></use></g></g><g><use xlink:href="#ig6ZKKeMz" opacity="1" fill="#e0e5e6" fill-opacity="1"></use><g><use xlink:href="#ig6ZKKeMz" opacity="1" fill-opacity="0" stroke="#000000" stroke-width="1" stroke-opacity="0"></use></g></g><g><use xlink:href="#a3aKCFIMmz" opacity="1" fill="#e0e5e6" fill-opacity="1"></use><g><use xlink:href="#a3aKCFIMmz" opacity="1" fill-opacity="0" stroke="#000000" stroke-width="1" stroke-opacity="0"></use></g></g><g><use xlink:href="#e5XGLnpq9p" opacity="1" fill="#3ca6e7" fill-opacity="1"></use><g><use xlink:href="#e5XGLnpq9p" opacity="1" fill-opacity="0" stroke="#000000" stroke-width="1" stroke-opacity="0"></use></g></g><g><use xlink:href="#g1Z23Xmx5l" opacity="1" fill="#662cf1" fill-opacity="1"></use><g><use xlink:href="#g1Z23Xmx5l" opacity="1" fill-opacity="0" stroke="#000000" stroke-width="1" stroke-opacity="0"></use></g></g><g><use xlink:href="#d2jRiVLEqQ" opacity="1" fill="#1fb73a" fill-opacity="1"></use><g><use xlink:href="#d2jRiVLEqQ" opacity="1" fill-opacity="0" stroke="#181717" stroke-width="0" stroke-opacity="1"></use></g></g></g></g></svg>